<?xml version="1.0" encoding="utf-8"?>
<!-- Generator: Adobe Illustrator 23.0.5, SVG Export Plug-In . SVG Version: 6.00 Build 0)  -->
<svg version="1.1" id="Layer_1" xmlns="http://www.w3.org/2000/svg" xmlns:xlink="http://www.w3.org/1999/xlink" x="0px" y="0px"
	 viewBox="0 0 891 378" style="enable-background:new 0 0 891 378;" xml:space="preserve">
<style type="text/css">
	.st0{fill:#343131;}
	.st1{fill:#FFFFFF;}
</style>
<g>
	<g>
		<circle class="st0" cx="171.6" cy="168.4" r="72"/>
		<circle class="st0" cx="722.4" cy="168.4" r="72"/>
		<g>
			<g>
				<path class="st0" d="M318.9,350.2c11.9,3.2,24,5.8,36.1,8c18.4,3.3,37,5.6,55.7,6.9c21.7,1.5,43.5,1.7,65.2,0.5
					c19.3-1.1,38.5-3.2,57.6-6.4c12.9-2.1,25.7-4.8,38.3-8c1.1-0.3,2.3-0.6,3.4-0.9c2.5-0.7,5-2.6,6.3-4.8c1.3-2.3,1.9-5.6,1.1-8.1
					c-1.8-5.5-7.2-8.8-12.9-7.3c-13.5,3.6-27.3,6.5-41.1,8.8c-5.2,0.9-10.5,1.7-15.7,2.4c0.9-0.1,1.9-0.3,2.8-0.4
					c-17.2,2.3-34.6,3.7-51.9,4.3c-19.1,0.6-38.3,0.2-57.4-1.3c-9.3-0.7-18.6-1.7-27.8-3c0.9,0.1,1.9,0.3,2.8,0.4
					c-15.9-2.1-31.8-5-47.4-8.8c-3.1-0.8-6.3-1.5-9.4-2.4c-2.6-0.7-5.7-0.3-8.1,1.1c-2.2,1.3-4.3,3.8-4.8,6.3
					C310.3,342.8,313.2,348.7,318.9,350.2L318.9,350.2z"/>
			</g>
		</g>
		<g>
			<g>
				<path class="st0" d="M306.5,81.4c-20.6-28.4-49.8-51-82.5-63.6c-49.4-19-107-9.6-148.9,22.5c-43,33.1-68.5,87.9-63.3,142.4
					c2.9,30.3,13.9,59.1,32.5,83.3c18,23.2,42,40.8,69.3,51.7c28.4,11.4,59.9,14,89.9,8c13.3-2.7,26.3-7.3,38.5-13.2
					c10.6-5.1,20.3-11.6,30.1-18c62.4-40.5,124.8-81,187.2-121.6C521.5,132.5,583.4,91.5,646,51.7c3.6-2.3,7.4-4.5,11.2-6.5
					c5.2-2.7,9.7-4.8,14-6.5c12.9-5,26.6-8.4,40.4-9.4c28.2-2,55.8,4.5,80.2,18.6c21.4,12.3,39.3,30,51.7,51.4
					c5.8,10.1,9.1,17.8,12.4,28.6c4.3,14.3,6.3,28.9,5.8,43.8c-0.8,24.6-8.7,47.5-21.7,68.4c-2.9,4.6-5.9,9-9.2,13.2
					c-1,1.3,0.9-1.2-0.1,0.1c-0.4,0.5-0.8,1-1.1,1.4c-0.7,0.9-1.5,1.9-2.3,2.8c-1.6,1.9-3.1,3.7-4.8,5.5
					c-5.2,5.7-10.7,11.1-16.5,16.1c-1.9,1.6-3.8,3.2-5.8,4.8c-1.5,1.2,1.1-0.9,0.9-0.7c-0.3,0.2-0.6,0.5-1,0.7
					c-0.5,0.4-1,0.8-1.5,1.1c-4.6,3.3-6.8,9.1-3.8,14.4c2.6,4.5,9.8,7.1,14.4,3.8c28.1-20.4,50.5-49.1,63.2-81.4
					c19.1-48.7,10.7-106-20.5-147.8c-36-48.2-96.6-73.6-156.2-63.8c-24.7,4.1-47,14.6-67.8,28.1c-31.1,20.2-62.2,40.4-93.2,60.5
					c-61.9,40.2-123.8,80.4-185.7,120.6c-30.8,20-61.7,40.1-92.5,60.1c-21.1,13.7-40.3,23.3-65.5,27
					c-54.8,8.1-111.5-19.9-139.7-67.4c-7.7-13.1-13.1-27.3-16.3-42.1c-0.6-2.9-1.2-5.9-1.6-8.9c-0.1-0.5-0.2-1-0.2-1.6
					c-0.3-1.8,0.2,1.5,0-0.2c-0.2-1.4-0.3-2.8-0.5-4.2c-0.4-4-0.6-8-0.6-12c-0.2-26,7-51.6,20.5-74c12.5-20.6,30-37.9,51.2-49.8
					c10.3-5.8,18.2-9.1,29.6-12.3c14.2-4,28.7-5.7,43.4-5c24.1,1.1,46.8,9.2,67.3,22.2c2.2,1.4,4.4,2.9,6.6,4.4
					c1.1,0.7,2.1,1.5,3.1,2.2c0.5,0.4,1,0.8,1.5,1.1c0.2,0.1,2.2,1.7,1.2,0.9c-0.9-0.7,0.3,0.2,0.4,0.3c0.5,0.4,0.9,0.8,1.4,1.1
					c0.9,0.7,1.8,1.5,2.8,2.3c1.8,1.6,3.7,3.1,5.5,4.8c5.6,5.1,10.9,10.5,15.8,16.2c1.6,1.9,3.2,3.8,4.8,5.8
					c1.4,1.7-1.2-1.6-0.6-0.7c0.2,0.3,0.5,0.6,0.7,0.9c0.3,0.5,0.7,0.9,1,1.4c3.3,4.6,9.1,6.8,14.4,3.8
					C307.3,93.1,309.9,86,306.5,81.4L306.5,81.4z"/>
			</g>
		</g>
	</g>
</g>
<g>
	<g>
		<path class="st1" d="M240.6,189c1.9-6.5,3-13.4,3-20.6c0-39.8-32.2-72-72-72c-26.9,0-50.3,14.7-62.7,36.6
			c17.5,13.3,37.2,25.3,59.1,35C192.4,178.8,216.6,185.4,240.6,189z"/>
		<path class="st1" d="M722.4,96.4c-31.8,0-58.8,20.6-68.3,49.2c21.6,3.7,43.3,10.2,64.9,20.4c18.7,8.8,40.5,21.9,63.3,42.4
			c7.6-11.4,12.1-25.2,12.1-40C794.4,128.6,762.2,96.4,722.4,96.4z"/>
		<path class="st1" d="M646,51.7c3.6-2.3,7.4-4.5,11.2-6.5c5.2-2.7,9.7-4.8,14-6.5c12.9-5,26.6-8.4,40.4-9.4
			c28.2-2,55.8,4.5,80.2,18.6c21.4,12.3,39.3,30,51.7,51.4c5.8,10.1,9.1,17.8,12.4,28.6c4.3,14.3,6.3,28.9,5.8,43.8
			c-0.8,24.6-8.7,47.5-21.7,68.4c-2.9,4.6-5.9,9-9.2,13.2c-1,1.3,0.9-1.2-0.1,0.1c-0.4,0.5-0.8,1-1.1,1.4c-0.7,0.9-1.5,1.9-2.3,2.8
			c-0.1,0.1-0.2,0.3-0.3,0.4c4.2,5.6,8.3,11.5,12.4,17.8c14-15.9,25.3-34.2,33-53.8c19.1-48.7,10.7-106-20.5-147.8
			c-36-48.2-96.6-73.6-156.2-63.8c-24.7,4.1-47,14.6-67.8,28.1c-31.1,20.2-62.2,40.4-93.2,60.5c-38.4,24.9-76.8,49.9-115.1,74.8
			c20.2-4.6,40.3-9.6,60.3-14.2C535.2,123.5,590.3,87.1,646,51.7z"/>
		<path class="st1" d="M103.8,46.4c10.3-5.8,18.2-9.1,29.6-12.3c14.2-4,28.7-5.7,43.4-5c24.1,1.1,46.8,9.2,67.3,22.2
			c2.2,1.4,4.4,2.9,6.6,4.4c1.1,0.7,2.1,1.5,3.1,2.2c0.5,0.4,1,0.8,1.5,1.1c0.2,0.1,2.2,1.7,1.2,0.9c-0.9-0.7,0.3,0.2,0.4,0.3
			c0.5,0.4,0.9,0.8,1.4,1.1c0.9,0.7,1.8,1.5,2.8,2.3c1.8,1.6,3.7,3.1,5.5,4.8c5.6,5.1,10.9,10.5,15.8,16.2c1.4,1.6,2.7,3.3,4.1,5
			c0,0,0,0.1,0.1,0.1c0.2,0.3,0.5,0.6,0.7,0.9c0.3,0.5,0.7,0.9,1,1.4c3.3,4.6,9.1,6.8,14.4,3.8c4.6-2.7,7.2-9.8,3.8-14.4
			c-20.6-28.4-49.8-51-82.5-63.6c-49.4-19-107-9.6-148.9,22.5C63.9,48.9,54,58.9,45.4,70.1c4.3,5.5,8.9,10.9,13.7,16.4
			C70.9,70.1,86,56.4,103.8,46.4z"/>
	</g>
</g>
</svg>
